<mxfile host="65bd71144e">
    <diagram id="eW6INjmOcvNxbLbyFDtT" name="Page-1">
        <mxGraphModel dx="6578" dy="3474" grid="1" gridSize="10" guides="1" tooltips="1" connect="1" arrows="1" fold="1" page="1" pageScale="1" pageWidth="1700" pageHeight="1100" math="0" shadow="0">
            <root>
                <mxCell id="0"/>
                <mxCell id="1" parent="0"/>
                <mxCell id="uwJi1PvDM-7kcF6BX1Ap-36" style="edgeStyle=none;rounded=1;orthogonalLoop=1;jettySize=auto;html=1;strokeColor=#E07A5F;fontColor=#393C56;fillColor=#F2CC8F;flowAnimation=1;strokeWidth=5;" parent="1" source="uwJi1PvDM-7kcF6BX1Ap-29" target="uwJi1PvDM-7kcF6BX1Ap-31" edge="1">
                    <mxGeometry relative="1" as="geometry"/>
                </mxCell>
                <mxCell id="uwJi1PvDM-7kcF6BX1Ap-29" value="&lt;b&gt;&lt;font style=&quot;font-size: 20px&quot;&gt;View&lt;/font&gt;&lt;/b&gt;&lt;br style=&quot;font-size: 14px&quot;&gt;&lt;br style=&quot;font-size: 14px&quot;&gt;&lt;font style=&quot;font-size: 18px;&quot;&gt;Screens where the actor sufficient information for him to generate a command&lt;/font&gt;" style="html=1;shadow=0;dashed=0;shape=mxgraph.bootstrap.rrect;rSize=5;strokeColor=#82b366;html=1;whiteSpace=wrap;fillColor=#d5e8d4;verticalAlign=top;align=left;spacing=20;spacingBottom=0;fontSize=14;rounded=1;fontColor=light-dark(#000000,#383838);" parent="1" vertex="1">
                    <mxGeometry x="-1680" y="-400" width="250" height="180" as="geometry"/>
                </mxCell>
                <mxCell id="uwJi1PvDM-7kcF6BX1Ap-37" style="edgeStyle=none;rounded=1;orthogonalLoop=1;jettySize=auto;html=1;strokeColor=#E07A5F;fontColor=#393C56;fillColor=#F2CC8F;flowAnimation=1;strokeWidth=5;" parent="1" source="uwJi1PvDM-7kcF6BX1Ap-31" target="uwJi1PvDM-7kcF6BX1Ap-32" edge="1">
                    <mxGeometry relative="1" as="geometry"/>
                </mxCell>
                <mxCell id="uwJi1PvDM-7kcF6BX1Ap-31" value="&lt;font style=&quot;color: rgb(0, 0, 0); font-size: 14px;&quot;&gt;&lt;b&gt;ACTOR&lt;/b&gt;&lt;/font&gt;" style="rounded=1;whiteSpace=wrap;html=1;strokeColor=#d6b656;fillColor=#fff2cc;" parent="1" vertex="1">
                    <mxGeometry x="-1220" y="-345" width="160" height="70" as="geometry"/>
                </mxCell>
                <mxCell id="uwJi1PvDM-7kcF6BX1Ap-41" style="edgeStyle=none;rounded=1;orthogonalLoop=1;jettySize=auto;html=1;strokeColor=#E07A5F;fontColor=#393C56;fillColor=#F2CC8F;flowAnimation=1;strokeWidth=5;" parent="1" source="uwJi1PvDM-7kcF6BX1Ap-32" target="uwJi1PvDM-7kcF6BX1Ap-90" edge="1">
                    <mxGeometry relative="1" as="geometry"/>
                </mxCell>
                <mxCell id="uwJi1PvDM-7kcF6BX1Ap-32" value="&lt;b&gt;&lt;font style=&quot;font-size: 20px&quot;&gt;Command&lt;/font&gt;&lt;/b&gt;&lt;br style=&quot;font-size: 14px&quot;&gt;&lt;br style=&quot;font-size: 14px&quot;&gt;&lt;font style=&quot;font-size: 18px;&quot;&gt;Action performed by an actor&lt;/font&gt;" style="html=1;shadow=0;dashed=0;shape=mxgraph.bootstrap.rrect;rSize=5;strokeColor=#6c8ebf;html=1;whiteSpace=wrap;fillColor=#dae8fc;verticalAlign=top;align=left;spacing=20;spacingBottom=0;fontSize=14;rounded=1;fontColor=light-dark(#000000,#383838);" parent="1" vertex="1">
                    <mxGeometry x="-840" y="-400" width="250" height="180" as="geometry"/>
                </mxCell>
                <mxCell id="uwJi1PvDM-7kcF6BX1Ap-40" style="edgeStyle=none;rounded=1;orthogonalLoop=1;jettySize=auto;html=1;strokeColor=#E07A5F;fontColor=#393C56;fillColor=#F2CC8F;flowAnimation=1;strokeWidth=5;" parent="1" source="uwJi1PvDM-7kcF6BX1Ap-34" target="uwJi1PvDM-7kcF6BX1Ap-90" edge="1">
                    <mxGeometry relative="1" as="geometry"/>
                </mxCell>
                <mxCell id="uwJi1PvDM-7kcF6BX1Ap-34" value="&lt;span style=&quot;font-size: 20px;&quot;&gt;&lt;b&gt;External System&lt;/b&gt;&lt;/span&gt;&lt;br style=&quot;font-size: 14px&quot;&gt;&lt;br style=&quot;font-size: 14px&quot;&gt;&lt;font style=&quot;font-size: 18px;&quot;&gt;Action delegated to the external system. Example, delegates payment to a payment gateway&lt;/font&gt;" style="html=1;shadow=0;dashed=0;shape=mxgraph.bootstrap.rrect;rSize=5;strokeColor=#b85450;html=1;whiteSpace=wrap;fillColor=#f8cecc;verticalAlign=top;align=left;spacing=20;spacingBottom=0;fontSize=14;rounded=1;fontColor=light-dark(#000000,#383838);" parent="1" vertex="1">
                    <mxGeometry x="-1680" y="-930" width="250" height="180" as="geometry"/>
                </mxCell>
                <mxCell id="uwJi1PvDM-7kcF6BX1Ap-46" style="edgeStyle=none;rounded=1;orthogonalLoop=1;jettySize=auto;html=1;strokeColor=#E07A5F;fontColor=#393C56;fillColor=#F2CC8F;flowAnimation=1;strokeWidth=5;" parent="1" source="uwJi1PvDM-7kcF6BX1Ap-38" target="uwJi1PvDM-7kcF6BX1Ap-44" edge="1">
                    <mxGeometry relative="1" as="geometry"/>
                </mxCell>
                <mxCell id="uwJi1PvDM-7kcF6BX1Ap-38" value="&lt;b&gt;&lt;font style=&quot;font-size: 20px&quot;&gt;Event&lt;/font&gt;&lt;/b&gt;&lt;br style=&quot;font-size: 14px&quot;&gt;&lt;br style=&quot;font-size: 14px&quot;&gt;&lt;font style=&quot;font-size: 18px;&quot;&gt;Something that happens important in the flow&lt;/font&gt;" style="html=1;shadow=0;dashed=0;shape=mxgraph.bootstrap.rrect;rSize=5;strokeColor=#d79b00;html=1;whiteSpace=wrap;fillColor=#ffe6cc;verticalAlign=top;align=left;spacing=20;spacingBottom=0;fontSize=14;rounded=1;fontColor=light-dark(#000000,#383838);" parent="1" vertex="1">
                    <mxGeometry x="-270" y="-930" width="250" height="180" as="geometry"/>
                </mxCell>
                <mxCell id="uwJi1PvDM-7kcF6BX1Ap-49" style="edgeStyle=none;rounded=1;orthogonalLoop=1;jettySize=auto;html=1;strokeColor=#E07A5F;fontColor=#393C56;fillColor=#F2CC8F;flowAnimation=1;strokeWidth=5;" parent="1" source="uwJi1PvDM-7kcF6BX1Ap-44" target="uwJi1PvDM-7kcF6BX1Ap-32" edge="1">
                    <mxGeometry relative="1" as="geometry"/>
                </mxCell>
                <mxCell id="uwJi1PvDM-7kcF6BX1Ap-44" value="&lt;b&gt;&lt;font style=&quot;font-size: 20px&quot;&gt;Policy&lt;/font&gt;&lt;/b&gt;&lt;br style=&quot;font-size: 14px&quot;&gt;&lt;br style=&quot;font-size: 14px&quot;&gt;&lt;font style=&quot;font-size: 18px;&quot;&gt;Policy that needs to be followed for the system to work properly&lt;/font&gt;" style="html=1;shadow=0;dashed=0;shape=mxgraph.bootstrap.rrect;rSize=5;strokeColor=#9673a6;html=1;whiteSpace=wrap;fillColor=#e1d5e7;verticalAlign=top;align=left;spacing=20;spacingBottom=0;fontSize=14;rounded=1;fontColor=light-dark(#000000,#383838);" parent="1" vertex="1">
                    <mxGeometry x="-270" y="-400" width="250" height="180" as="geometry"/>
                </mxCell>
                <mxCell id="uwJi1PvDM-7kcF6BX1Ap-48" style="edgeStyle=none;rounded=1;orthogonalLoop=1;jettySize=auto;html=1;strokeColor=#E07A5F;fontColor=#393C56;fillColor=#F2CC8F;flowAnimation=1;strokeWidth=5;" parent="1" source="uwJi1PvDM-7kcF6BX1Ap-47" target="uwJi1PvDM-7kcF6BX1Ap-44" edge="1">
                    <mxGeometry relative="1" as="geometry"/>
                </mxCell>
                <mxCell id="uwJi1PvDM-7kcF6BX1Ap-47" value="&lt;font style=&quot;color: rgb(0, 0, 0); font-size: 14px;&quot;&gt;&lt;b&gt;ACTOR&lt;/b&gt;&lt;/font&gt;" style="rounded=1;whiteSpace=wrap;html=1;strokeColor=#d6b656;fillColor=#fff2cc;" parent="1" vertex="1">
                    <mxGeometry x="-230" y="-110" width="160" height="70" as="geometry"/>
                </mxCell>
                <mxCell id="uwJi1PvDM-7kcF6BX1Ap-54" style="edgeStyle=none;rounded=1;orthogonalLoop=1;jettySize=auto;html=1;strokeColor=#898F9C;fontColor=#393C56;fillColor=#eeeeee;strokeWidth=1;endArrow=none;startFill=0;exitX=0.75;exitY=1;exitDx=0;exitDy=0;" parent="1" source="uwJi1PvDM-7kcF6BX1Ap-53" target="uwJi1PvDM-7kcF6BX1Ap-31" edge="1">
                    <mxGeometry relative="1" as="geometry">
                        <mxPoint x="-1272.361212559813" y="-490.7530245061371" as="sourcePoint"/>
                    </mxGeometry>
                </mxCell>
                <mxCell id="uwJi1PvDM-7kcF6BX1Ap-55" style="edgeStyle=none;rounded=1;orthogonalLoop=1;jettySize=auto;html=1;strokeColor=#898F9C;fontColor=#393C56;fillColor=#eeeeee;strokeWidth=1;endArrow=none;startFill=0;exitX=0.75;exitY=1;exitDx=0;exitDy=0;" parent="1" source="uwJi1PvDM-7kcF6BX1Ap-53" target="uwJi1PvDM-7kcF6BX1Ap-29" edge="1">
                    <mxGeometry relative="1" as="geometry">
                        <mxPoint x="-1279.1701714589262" y="-492.2414369677384" as="sourcePoint"/>
                    </mxGeometry>
                </mxCell>
                <mxCell id="uwJi1PvDM-7kcF6BX1Ap-56" style="edgeStyle=none;rounded=1;orthogonalLoop=1;jettySize=auto;html=1;strokeColor=#898F9C;fontColor=#393C56;fillColor=#eeeeee;strokeWidth=1;endArrow=none;startFill=0;exitX=0.75;exitY=1;exitDx=0;exitDy=0;" parent="1" source="uwJi1PvDM-7kcF6BX1Ap-53" target="uwJi1PvDM-7kcF6BX1Ap-32" edge="1">
                    <mxGeometry relative="1" as="geometry">
                        <mxPoint x="-1270.2522338380613" y="-493.4319705132144" as="sourcePoint"/>
                    </mxGeometry>
                </mxCell>
                <mxCell id="uwJi1PvDM-7kcF6BX1Ap-72" style="edgeStyle=none;rounded=1;orthogonalLoop=1;jettySize=auto;html=1;strokeColor=#898F9C;fontColor=#393C56;fillColor=#eeeeee;strokeWidth=1;endArrow=none;startFill=0;exitX=0.5;exitY=0;exitDx=0;exitDy=0;" parent="1" source="uwJi1PvDM-7kcF6BX1Ap-97" target="uwJi1PvDM-7kcF6BX1Ap-44" edge="1">
                    <mxGeometry relative="1" as="geometry">
                        <mxPoint x="-709.0254507342056" y="-126.82243408384534" as="sourcePoint"/>
                    </mxGeometry>
                </mxCell>
                <mxCell id="uwJi1PvDM-7kcF6BX1Ap-73" style="edgeStyle=none;rounded=1;orthogonalLoop=1;jettySize=auto;html=1;strokeColor=#898F9C;fontColor=#393C56;fillColor=#eeeeee;strokeWidth=1;endArrow=none;startFill=0;exitX=0.5;exitY=0;exitDx=0;exitDy=0;" parent="1" source="uwJi1PvDM-7kcF6BX1Ap-97" target="uwJi1PvDM-7kcF6BX1Ap-32" edge="1">
                    <mxGeometry relative="1" as="geometry">
                        <mxPoint x="-713.4278782764782" y="-129.9999156188485" as="sourcePoint"/>
                    </mxGeometry>
                </mxCell>
                <mxCell id="uwJi1PvDM-7kcF6BX1Ap-79" style="rounded=1;orthogonalLoop=1;jettySize=auto;html=1;strokeColor=#898F9C;strokeWidth=1;align=center;verticalAlign=middle;fontFamily=Helvetica;fontSize=11;fontColor=#393C56;labelBackgroundColor=default;startFill=0;endArrow=none;fillColor=#eeeeee;exitX=1;exitY=0.5;exitDx=0;exitDy=0;" parent="1" source="uwJi1PvDM-7kcF6BX1Ap-96" target="uwJi1PvDM-7kcF6BX1Ap-90" edge="1">
                    <mxGeometry relative="1" as="geometry">
                        <mxPoint x="-911.4666495855031" y="-610.983166271921" as="sourcePoint"/>
                    </mxGeometry>
                </mxCell>
                <mxCell id="uwJi1PvDM-7kcF6BX1Ap-80" style="edgeStyle=none;rounded=1;orthogonalLoop=1;jettySize=auto;html=1;strokeColor=#898F9C;strokeWidth=1;align=center;verticalAlign=middle;fontFamily=Helvetica;fontSize=11;fontColor=#393C56;labelBackgroundColor=default;startFill=0;endArrow=none;fillColor=#eeeeee;exitX=1;exitY=0.5;exitDx=0;exitDy=0;" parent="1" source="uwJi1PvDM-7kcF6BX1Ap-96" target="uwJi1PvDM-7kcF6BX1Ap-32" edge="1">
                    <mxGeometry relative="1" as="geometry">
                        <mxPoint x="-911.8702795361023" y="-604.289219855226" as="sourcePoint"/>
                    </mxGeometry>
                </mxCell>
                <mxCell id="uwJi1PvDM-7kcF6BX1Ap-83" style="edgeStyle=none;rounded=1;orthogonalLoop=1;jettySize=auto;html=1;endArrow=none;startFill=0;strokeColor=#898F9C;strokeWidth=1;align=center;verticalAlign=middle;fontFamily=Helvetica;fontSize=11;fontColor=#393C56;labelBackgroundColor=default;fillColor=#eeeeee;exitX=0.5;exitY=0;exitDx=0;exitDy=0;" parent="1" source="uwJi1PvDM-7kcF6BX1Ap-97" target="uwJi1PvDM-7kcF6BX1Ap-31" edge="1">
                    <mxGeometry relative="1" as="geometry">
                        <mxPoint x="-717.6510427716853" y="-127.15745137987005" as="sourcePoint"/>
                    </mxGeometry>
                </mxCell>
                <mxCell id="uwJi1PvDM-7kcF6BX1Ap-90" value="&lt;span style=&quot;font-size: 20px;&quot;&gt;&lt;b&gt;Aggregate&lt;/b&gt;&lt;/span&gt;&lt;br style=&quot;font-size: 14px&quot;&gt;&lt;br style=&quot;font-size: 14px&quot;&gt;&lt;font style=&quot;font-size: 18px;&quot;&gt;Value objects seen as a unit. For example, a customer&#39;s account&lt;/font&gt;" style="html=1;shadow=0;dashed=0;shape=mxgraph.bootstrap.rrect;rSize=5;strokeColor=#36393d;html=1;whiteSpace=wrap;fillColor=#ffff88;verticalAlign=top;align=left;spacing=20;spacingBottom=0;fontSize=14;rounded=1;fontColor=light-dark(#000000,#383838);" parent="1" vertex="1">
                    <mxGeometry x="-840" y="-930" width="250" height="180" as="geometry"/>
                </mxCell>
                <mxCell id="uwJi1PvDM-7kcF6BX1Ap-91" style="edgeStyle=none;rounded=1;orthogonalLoop=1;jettySize=auto;html=1;strokeColor=#E07A5F;fontColor=#393C56;fillColor=#F2CC8F;flowAnimation=1;strokeWidth=5;" parent="1" source="uwJi1PvDM-7kcF6BX1Ap-90" target="uwJi1PvDM-7kcF6BX1Ap-38" edge="1">
                    <mxGeometry relative="1" as="geometry">
                        <mxPoint x="-530" y="-660" as="sourcePoint"/>
                        <mxPoint x="-480" y="-660" as="targetPoint"/>
                    </mxGeometry>
                </mxCell>
                <mxCell id="uwJi1PvDM-7kcF6BX1Ap-92" value="&lt;b&gt;RULESETS&lt;/b&gt;" style="text;html=1;align=center;verticalAlign=middle;whiteSpace=wrap;rounded=1;fontSize=40;fillColor=#647687;fontColor=#ffffff;strokeColor=#314354;" parent="1" vertex="1">
                    <mxGeometry x="-1680" y="-1080" width="290" height="80" as="geometry"/>
                </mxCell>
                <mxCell id="uwJi1PvDM-7kcF6BX1Ap-53" value="&lt;h1 style=&quot;margin-top: 0px; padding-top: 0px; padding-right: 5px; padding-left: 5px;&quot;&gt;&lt;font style=&quot;&quot;&gt;Models x Actors&lt;/font&gt;&lt;/h1&gt;&lt;p style=&quot;padding-top: 0px; padding-left: 5px; padding-right: 5px;&quot;&gt;&lt;font style=&quot;font-size: 14px;&quot;&gt;Reading models support actors to running commands&lt;/font&gt;&lt;/p&gt;" style="text;html=1;whiteSpace=wrap;overflow=hidden;rounded=1;fontColor=light-dark(#FEFEFE,#FFFFFF);labelBorderColor=none;dashed=1;strokeColor=#8A8A8A;container=0;strokeWidth=2;" parent="1" vertex="1">
                    <mxGeometry x="-1610" y="-630" width="290" height="90" as="geometry"/>
                </mxCell>
                <mxCell id="uwJi1PvDM-7kcF6BX1Ap-96" value="&lt;h1 style=&quot;margin-top: 0px; padding-top: 0px; padding-right: 5px; padding-left: 5px;&quot;&gt;Command x Aggregate&lt;/h1&gt;&lt;p style=&quot;padding-top: 0px; padding-left: 5px; padding-right: 5px;&quot;&gt;&lt;font style=&quot;font-size: 14px;&quot;&gt;Commands always act on aggregates&lt;/font&gt;&lt;/p&gt;" style="text;html=1;whiteSpace=wrap;overflow=hidden;rounded=1;fontColor=light-dark(#FEFEFE,#FFFFFF);labelBorderColor=none;dashed=1;strokeColor=#8A8A8A;container=0;strokeWidth=2;" parent="1" vertex="1">
                    <mxGeometry x="-1210" y="-700" width="280" height="80" as="geometry"/>
                </mxCell>
                <mxCell id="uwJi1PvDM-7kcF6BX1Ap-97" value="&lt;h1 style=&quot;margin-top: 0px; padding-top: 0px; padding-right: 5px; padding-left: 5px;&quot;&gt;Command sources&lt;/h1&gt;&lt;p style=&quot;padding-top: 0px; padding-left: 5px; padding-right: 5px;&quot;&gt;&lt;font style=&quot;font-size: 14px;&quot;&gt;Commands can be insited by policies and actors&lt;/font&gt;&lt;/p&gt;" style="text;html=1;whiteSpace=wrap;overflow=hidden;rounded=1;fontColor=light-dark(#FEFEFE,#FFFFFF);labelBorderColor=none;dashed=1;strokeColor=#8A8A8A;container=0;strokeWidth=2;" parent="1" vertex="1">
                    <mxGeometry x="-855" y="-110" width="280" height="90" as="geometry"/>
                </mxCell>
                <mxCell id="JOwwPTtRWJGJjrK-fNy5-20" style="edgeStyle=none;rounded=0;orthogonalLoop=1;jettySize=auto;html=1;dashed=1;dashPattern=8 8;flowAnimation=1;strokeWidth=3;exitX=0.646;exitY=-0.013;exitDx=0;exitDy=0;exitPerimeter=0;" parent="1" source="JOwwPTtRWJGJjrK-fNy5-2" target="JOwwPTtRWJGJjrK-fNy5-7" edge="1">
                    <mxGeometry relative="1" as="geometry">
                        <Array as="points">
                            <mxPoint x="-1100" y="960"/>
                        </Array>
                    </mxGeometry>
                </mxCell>
                <mxCell id="JOwwPTtRWJGJjrK-fNy5-2" value="&lt;span&gt;&lt;b&gt;Subscription Account&lt;/b&gt;&lt;/span&gt;" style="html=1;shadow=0;dashed=0;shape=mxgraph.bootstrap.rrect;rSize=5;strokeColor=#36393d;html=1;whiteSpace=wrap;fillColor=#ffff88;verticalAlign=middle;align=center;spacing=20;spacingBottom=0;fontSize=46;rounded=1;fontColor=light-dark(#000000,#383838);" parent="1" vertex="1">
                    <mxGeometry x="-1320" y="1533" width="350" height="235" as="geometry"/>
                </mxCell>
                <mxCell id="JOwwPTtRWJGJjrK-fNy5-16" style="edgeStyle=none;rounded=0;orthogonalLoop=1;jettySize=auto;html=1;dashed=1;dashPattern=8 8;flowAnimation=1;strokeWidth=3;" parent="1" source="JOwwPTtRWJGJjrK-fNy5-3" edge="1">
                    <mxGeometry relative="1" as="geometry">
                        <mxPoint x="-1200" y="1530" as="targetPoint"/>
                        <Array as="points">
                            <mxPoint x="-1200" y="960"/>
                        </Array>
                    </mxGeometry>
                </mxCell>
                <mxCell id="JOwwPTtRWJGJjrK-fNy5-3" value="&lt;b&gt;&lt;font style=&quot;font-size: 28px;&quot;&gt;Create Subscription Account&lt;/font&gt;&lt;/b&gt;" style="html=1;shadow=0;dashed=0;shape=mxgraph.bootstrap.rrect;rSize=5;strokeColor=#6c8ebf;html=1;whiteSpace=wrap;fillColor=#dae8fc;verticalAlign=middle;align=center;spacing=20;spacingBottom=0;fontSize=14;rounded=1;fontColor=light-dark(#000000,#383838);" parent="1" vertex="1">
                    <mxGeometry x="-1620" y="865" width="250" height="180" as="geometry"/>
                </mxCell>
                <mxCell id="JOwwPTtRWJGJjrK-fNy5-18" style="edgeStyle=none;rounded=0;orthogonalLoop=1;jettySize=auto;html=1;dashed=1;dashPattern=8 8;flowAnimation=1;strokeWidth=3;" parent="1" source="JOwwPTtRWJGJjrK-fNy5-5" target="JOwwPTtRWJGJjrK-fNy5-2" edge="1">
                    <mxGeometry relative="1" as="geometry"/>
                </mxCell>
                <mxCell id="JOwwPTtRWJGJjrK-fNy5-5" value="&lt;b&gt;&lt;font style=&quot;font-size: 28px;&quot;&gt;Update Account Name and Flags&lt;/font&gt;&lt;/b&gt;" style="html=1;shadow=0;dashed=0;shape=mxgraph.bootstrap.rrect;rSize=5;strokeColor=#6c8ebf;html=1;whiteSpace=wrap;fillColor=#dae8fc;verticalAlign=middle;align=center;spacing=20;spacingBottom=0;fontSize=14;rounded=1;fontColor=light-dark(#000000,#383838);" parent="1" vertex="1">
                    <mxGeometry x="-480" y="1560" width="250" height="180" as="geometry"/>
                </mxCell>
                <mxCell id="JOwwPTtRWJGJjrK-fNy5-1" value="&lt;font color=&quot;#000000&quot;&gt;&lt;span style=&quot;font-size: 14px;&quot;&gt;&lt;b&gt;SUBSCRIPTION MANAGER&lt;/b&gt;&lt;/span&gt;&lt;/font&gt;" style="rounded=1;whiteSpace=wrap;html=1;strokeColor=#d6b656;fillColor=#fff2cc;" parent="1" vertex="1">
                    <mxGeometry x="-1730" y="1030" width="160" height="70" as="geometry"/>
                </mxCell>
                <mxCell id="JOwwPTtRWJGJjrK-fNy5-12" style="edgeStyle=none;rounded=0;orthogonalLoop=1;jettySize=auto;html=1;dashed=1;dashPattern=8 8;flowAnimation=1;strokeWidth=3;" parent="1" source="JOwwPTtRWJGJjrK-fNy5-7" target="JOwwPTtRWJGJjrK-fNy5-11" edge="1">
                    <mxGeometry relative="1" as="geometry">
                        <Array as="points">
                            <mxPoint x="-840" y="1160"/>
                        </Array>
                    </mxGeometry>
                </mxCell>
                <mxCell id="JOwwPTtRWJGJjrK-fNy5-22" style="edgeStyle=none;rounded=0;orthogonalLoop=1;jettySize=auto;html=1;dashed=1;dashPattern=8 8;strokeColor=default;strokeWidth=3;align=center;verticalAlign=middle;fontFamily=Helvetica;fontSize=11;fontColor=default;labelBackgroundColor=default;endArrow=classic;flowAnimation=1;" parent="1" source="JOwwPTtRWJGJjrK-fNy5-7" target="JOwwPTtRWJGJjrK-fNy5-21" edge="1">
                    <mxGeometry relative="1" as="geometry">
                        <Array as="points">
                            <mxPoint x="-850" y="800"/>
                        </Array>
                    </mxGeometry>
                </mxCell>
                <mxCell id="JOwwPTtRWJGJjrK-fNy5-7" value="&lt;b style=&quot;&quot;&gt;&lt;font style=&quot;font-size: 28px;&quot;&gt;Subscription Account Created&lt;/font&gt;&lt;/b&gt;" style="html=1;shadow=0;dashed=0;shape=mxgraph.bootstrap.rrect;rSize=5;strokeColor=#d79b00;html=1;whiteSpace=wrap;fillColor=#ffe6cc;verticalAlign=middle;align=center;spacing=20;spacingBottom=0;fontSize=14;rounded=1;fontColor=light-dark(#000000,#383838);" parent="1" vertex="1">
                    <mxGeometry x="-970" y="865" width="250" height="180" as="geometry"/>
                </mxCell>
                <mxCell id="JOwwPTtRWJGJjrK-fNy5-10" style="edgeStyle=none;rounded=0;orthogonalLoop=1;jettySize=auto;html=1;dashed=1;dashPattern=8 8;flowAnimation=1;strokeWidth=3;" parent="1" source="JOwwPTtRWJGJjrK-fNy5-9" target="JOwwPTtRWJGJjrK-fNy5-3" edge="1">
                    <mxGeometry relative="1" as="geometry"/>
                </mxCell>
                <mxCell id="JOwwPTtRWJGJjrK-fNy5-9" value="&lt;b&gt;&lt;font style=&quot;font-size: 28px;&quot;&gt;List Account By Type&lt;/font&gt;&lt;/b&gt;" style="html=1;shadow=0;dashed=0;shape=mxgraph.bootstrap.rrect;rSize=5;strokeColor=#82b366;html=1;whiteSpace=wrap;fillColor=#d5e8d4;verticalAlign=middle;align=center;spacing=20;spacingBottom=0;fontSize=14;rounded=1;fontColor=light-dark(#000000,#383838);" parent="1" vertex="1">
                    <mxGeometry x="-2100" y="865" width="250" height="180" as="geometry"/>
                </mxCell>
                <mxCell id="JOwwPTtRWJGJjrK-fNy5-14" style="edgeStyle=none;rounded=0;orthogonalLoop=1;jettySize=auto;html=1;dashed=1;dashPattern=8 8;flowAnimation=1;strokeWidth=3;" parent="1" source="JOwwPTtRWJGJjrK-fNy5-11" target="JOwwPTtRWJGJjrK-fNy5-5" edge="1">
                    <mxGeometry relative="1" as="geometry"/>
                </mxCell>
                <mxCell id="JOwwPTtRWJGJjrK-fNy5-11" value="&lt;b&gt;&lt;font style=&quot;font-size: 28px;&quot;&gt;Get Account Details&lt;/font&gt;&lt;/b&gt;" style="html=1;shadow=0;dashed=0;shape=mxgraph.bootstrap.rrect;rSize=5;strokeColor=#82b366;html=1;whiteSpace=wrap;fillColor=#d5e8d4;verticalAlign=middle;align=center;spacing=20;spacingBottom=0;fontSize=14;rounded=1;fontColor=light-dark(#000000,#383838);" parent="1" vertex="1">
                    <mxGeometry x="-480" y="1065" width="250" height="180" as="geometry"/>
                </mxCell>
                <mxCell id="JOwwPTtRWJGJjrK-fNy5-13" value="&lt;font color=&quot;#000000&quot;&gt;&lt;span style=&quot;font-size: 14px;&quot;&gt;&lt;b&gt;SUBSCRIPTION MANAGER&lt;/b&gt;&lt;/span&gt;&lt;/font&gt;" style="rounded=1;whiteSpace=wrap;html=1;strokeColor=#d6b656;fillColor=#fff2cc;" parent="1" vertex="1">
                    <mxGeometry x="-550" y="1712.5" width="160" height="70" as="geometry"/>
                </mxCell>
                <mxCell id="JOwwPTtRWJGJjrK-fNy5-23" style="rounded=0;orthogonalLoop=1;jettySize=auto;html=1;exitX=1.006;exitY=0.504;exitDx=0;exitDy=0;exitPerimeter=0;dashed=1;dashPattern=8 8;strokeColor=default;strokeWidth=3;align=center;verticalAlign=middle;fontFamily=Helvetica;fontSize=11;fontColor=default;labelBackgroundColor=default;endArrow=classic;flowAnimation=1;" parent="1" source="JOwwPTtRWJGJjrK-fNy5-21" target="JOwwPTtRWJGJjrK-fNy5-2" edge="1">
                    <mxGeometry relative="1" as="geometry">
                        <Array as="points">
                            <mxPoint x="-40" y="800"/>
                            <mxPoint x="-40" y="1880"/>
                            <mxPoint x="-1140" y="1880"/>
                        </Array>
                    </mxGeometry>
                </mxCell>
                <mxCell id="JOwwPTtRWJGJjrK-fNy5-21" value="&lt;b&gt;&lt;font style=&quot;font-size: 28px;&quot;&gt;Dispatch&lt;/font&gt;&lt;/b&gt;&lt;div&gt;&lt;span style=&quot;font-size: 28px;&quot;&gt;&lt;b&gt;Account&lt;br&gt;&lt;/b&gt;&lt;/span&gt;&lt;div&gt;&lt;b&gt;&lt;font style=&quot;font-size: 28px;&quot;&gt;Creation Webhooks&lt;/font&gt;&lt;/b&gt;&lt;/div&gt;&lt;/div&gt;" style="html=1;shadow=0;dashed=0;shape=mxgraph.bootstrap.rrect;rSize=5;strokeColor=#6c8ebf;html=1;whiteSpace=wrap;fillColor=#dae8fc;verticalAlign=middle;align=center;spacing=20;spacingBottom=0;fontSize=14;rounded=1;fontColor=light-dark(#000000,#383838);" parent="1" vertex="1">
                    <mxGeometry x="-490" y="710" width="250" height="180" as="geometry"/>
                </mxCell>
            </root>
        </mxGraphModel>
    </diagram>
</mxfile>